<svg width="155" height="28" viewBox="0 0 155 28" xmlns="http://www.w3.org/2000/svg" shape-rendering="geometricPrecision">
  <rect width="155" height="28" rx="3" fill="#0A66C2"/>
  
  <g fill="white">
    <rect x="12" y="9" width="2.5" height="10"/>
    <circle cx="13.25" cy="6" r="1.3"/>
    <path d="M17 9h2.3v1.3h.05c.3-.6 1.1-1.3 2.4-1.3 2.5 0 3 1.7 3 3.9V19h-2.5v-4.5c0-1.1 0-2.5-1.5-2.5-1.5 0-1.7 1.2-1.7 2.4V19H17V9z"/>
  </g>
  
  <g fill="white" transform="translate(38, 18.5)">
    <path d="M0-9.2h1.8l4.4 7h.1V-9.2h1.5V0H6.2L1.6-7.2h-.1V0H0V-9.2zM10.5-9.2h4l2.8 9.2h-1.6l-.7-2.4H12l-.7 2.4H9.7L12.5-9.2zM12.4-7.8l-2.2 6.4h4.4l-2.2-6.4zM18.8-2c.4.4 1 .6 1.7.6.6 0 1.1-.1 1.4-.4.3-.3.5-.6.5-1 0-.3-.1-.6-.4-.8-.2-.2-.7-.4-1.3-.6-.9-.3-1.5-.6-1.9-1-.4-.4-.6-.9-.6-1.5 0-.7.3-1.3.8-1.7.6-.4 1.3-.7 2.2-.7 1.1 0 1.9.4 2.5 1.1l-1 1c-.4-.5-.9-.8-1.5-.8-.5 0-.8.1-1.1.3-.2.2-.3.4-.3.7 0 .3.1.5.3.7.2.2.7.4 1.4.6.9.3 1.5.6 1.9 1s.6.9.6 1.6c0 .8-.3 1.5-.9 2-.6.5-1.4.8-2.5.8-1.2 0-2.2-.4-2.8-1.2l1.1-1zM26.2-9.2h1.5V0h-1.5V-9.2zM30.4-9.2h1.5v5.2c0 .8.1 1.4.4 1.8.3.4.8.6 1.4.6.6 0 1.1-.2 1.4-.6.3-.4.4-1 .4-1.8v-5.2h1.5V0h-1.5v-1.1c-.4.5-.9.8-1.7.8-1 0-1.8-.3-2.3-.9s-.7-1.4-.7-2.4v-5.6zM38.8-9.2h4.5v1.3h-3v2.5h2.8v1.3h-2.8V0h-1.5V-9.2zM45.5-4.5h4v1.2h-4v-1.2zM51.5-9.2h1.5V0h-1.5V-9.2zM55.8-2c.4.4 1 .6 1.7.6.6 0 1.1-.1 1.4-.4.3-.3.5-.6.5-1 0-.3-.1-.6-.4-.8-.2-.2-.7-.4-1.3-.6-.9-.3-1.5-.6-1.9-1-.4-.4-.6-.9-.6-1.5 0-.7.3-1.3.8-1.7.6-.4 1.3-.7 2.2-.7 1.1 0 1.9.4 2.5 1.1l-1 1c-.4-.5-.9-.8-1.5-.8-.5 0-.8.1-1.1.3-.2.2-.3.4-.3.7 0 .3.1.5.3.7.2.2.7.4 1.4.6.9.3 1.5.6 1.9 1s.6.9.6 1.6c0 .8-.3 1.5-.9 2-.6.5-1.4.8-2.5.8-1.2 0-2.2-.4-2.8-1.2l1.1-1zM63.5-9.2h1.5V0h-1.5V-9.2zM67.8-9.2h4l2.8 9.2h-1.6l-.7-2.4H69.3l-.7 2.4H67L69.8-9.2zm1.9 1.4L67.5-1.4h4.4L69.7-7.8zM76.5-9.2h1.8l3 5.4 3-5.4h1.7V0h-1.5v-6.3L81.5-1h-.4L78-6.3V0h-1.5V-9.2z"/>
  </g>
</svg>
